<svg xmlns="http://www.w3.org/2000/svg" width="48" height="42" viewBox="0 0 48 42"><g fill="none" fill-rule="evenodd"><circle cx="24" cy="21" r="21" fill="#3E9CFA"/><circle cx="41" cy="35" r="7" fill="#82C8FA"/><circle cx="7" cy="7" r="7" fill="#BFE4FF"/><path fill="#3E9CFA" fill-rule="nonzero" d="M3.965 4.49a3.927 3.927 0 0 1 4.813-1.084c1.963.968 2.778 3.362 1.82 5.347-.957 1.985-3.324 2.81-5.287 1.841a3.96 3.96 0 0 1-1.8-1.798.49.49 0 0 1 .214-.655.48.48 0 0 1 .648.217 2.975 2.975 0 0 0 5.36-.033c.723-1.5.106-3.31-1.378-4.043a2.972 2.972 0 0 0-3.814 1.064h.485c.266 0 .482.218.482.488s-.216.487-.482.487H3.482A.485.485 0 0 1 3 5.834v-1.56c0-.27.216-.489.482-.489.267 0 .483.219.483.488v.217z"/><path fill="#BFE4FF" d="M22.035 15.952c0 .665.308 1.173.924 1.523.616.35 1.567.714 2.853 1.092 1.286.377 2.344.754 3.174 1.132.83.377 1.54.943 2.13 1.698.59.754.884 1.752.884 2.991 0 1.582-.531 2.866-1.594 3.855-1.063.988-2.469 1.59-4.22 1.805v1.396c0 .86-.689 1.556-1.54 1.556-.85 0-1.54-.697-1.54-1.556v-1.396a13.368 13.368 0 0 1-3.643-.997 10.953 10.953 0 0 1-1.418-.772 2.245 2.245 0 0 1-.819-2.88 1.622 1.622 0 0 1 2.359-.65c.68.451 1.264.78 1.753.987 1.232.521 2.357.782 3.375.782.876 0 1.559-.162 2.05-.485.49-.324.736-.791.736-1.402 0-.485-.165-.885-.495-1.2-.33-.314-.75-.57-1.26-.767-.508-.198-1.21-.423-2.102-.674-1.286-.36-2.335-.719-3.148-1.078a5.543 5.543 0 0 1-2.103-1.644c-.589-.737-.884-1.716-.884-2.938 0-1.474.505-2.7 1.514-3.68 1.009-.978 2.37-1.594 4.085-1.845v-1.25c0-.858.69-1.555 1.54-1.555.851 0 1.54.697 1.54 1.556v1.222c1.072.125 2.1.359 3.082.7.242.085.515.197.818.337a2.051 2.051 0 0 1 .996 2.708 1.875 1.875 0 0 1-2.497.934 12.628 12.628 0 0 0-1.394-.57c-1.08-.35-2.004-.525-2.772-.525-.732 0-1.313.135-1.741.405-.43.27-.643.664-.643 1.185z"/><path fill="#FFF" fill-rule="nonzero" d="M43.597 32.257a.838.838 0 0 1 1.128-.072.718.718 0 0 1 .078 1.058l-4.182 4.5a.835.835 0 0 1-1.228-.025l-2.218-2.606a.719.719 0 0 1 .126-1.054.837.837 0 0 1 1.124.118l1.62 1.903 3.552-3.822z"/></g></svg>