<svg xmlns="http://www.w3.org/2000/svg" viewBox="0 0 72 72" width="72" height="72"><g fill="none" fill-rule="evenodd"><circle cx="36" cy="36" r="36" fill="#F5EDFF"/><path fill="#C499FF" d="M50 31h8.4a1.6 1.6 0 0 1 1.6 1.6v18.8a1.6 1.6 0 0 1-1.6 1.6H21.6a1.6 1.6 0 0 1-1.6-1.6V40h30v-9z"/><path fill="#9664FA" d="M13.6 19h36.8a1.6 1.6 0 0 1 1.6 1.6v18.8a1.6 1.6 0 0 1-1.6 1.6H13.6a1.6 1.6 0 0 1-1.6-1.6V20.6a1.6 1.6 0 0 1 1.6-1.6zM32 38a8 8 0 1 0 0-16 8 8 0 0 0 0 16zm1-4.051v.551a1 1 0 0 1-2 0V34h-1a1 1 0 0 1 0-2h2.5a.5.5 0 0 0 0-1h-1a2.503 2.503 0 0 1-2.5-2.5c0-1.208.86-2.217 2-2.45v-.55a1 1 0 0 1 2 0v.5h.5a1 1 0 0 1 0 2h-2a.5.5 0 0 0 0 1h1c1.378 0 2.5 1.122 2.5 2.5 0 1.207-.86 2.216-2 2.449zM16 22a1 1 0 1 0 0 2h4a1 1 0 1 0 0-2h-4z"/><path fill="#F5EDFF" d="M44 36h4v8h3l-5 5-5-5h3z"/></g></svg>