<svg xmlns="http://www.w3.org/2000/svg" width="48" height="48" viewBox="0 0 48 48"><g fill="none" fill-rule="evenodd"><path fill="#3E9CFA" fill-rule="nonzero" d="M25.688 32.591l2.326.76 13.047-6.807c2.682-1.246 4.847-1.045 6.13.837 1.588 2.33.71 4.693-1.518 6.818-.919.877-6.988 5.607-16.072 12.61a5.666 5.666 0 0 1-5.055.965L10.76 43.756H4V41.38l.262-13.67.162-1.672 5.587-4.695a5.666 5.666 0 0 1 5.871-.894l6.076 2.573c3.654 1.633 4.985 4.265 3.568 7.46l-9.893-3.03a1 1 0 0 0-.586 1.912l10.397 3.184c.08.025.163.04.244.043z"/><path fill="#82C8FA" d="M30.035 7.952c0 .665.308 1.173.924 1.523.616.35 1.567.714 2.853 1.092 1.286.377 2.344.754 3.174 1.132.83.377 1.54.943 2.13 1.698.59.754.884 1.752.884 2.991 0 1.582-.531 2.866-1.594 3.855-1.063.988-2.469 1.59-4.22 1.805v1.396c0 .86-.689 1.556-1.54 1.556-.85 0-1.54-.697-1.54-1.556v-1.396a13.368 13.368 0 0 1-3.643-.997 10.953 10.953 0 0 1-1.418-.772 2.245 2.245 0 0 1-.819-2.88 1.622 1.622 0 0 1 2.359-.65c.68.451 1.264.78 1.753.987 1.232.521 2.357.782 3.375.782.876 0 1.559-.162 2.05-.485.49-.324.736-.791.736-1.402 0-.485-.165-.885-.495-1.2-.33-.314-.75-.57-1.26-.767-.508-.198-1.21-.423-2.102-.674-1.286-.36-2.335-.719-3.148-1.078a5.543 5.543 0 0 1-2.103-1.644c-.589-.737-.884-1.716-.884-2.938 0-1.474.505-2.7 1.514-3.68 1.009-.978 2.37-1.594 4.085-1.845v-1.25c0-.858.69-1.555 1.54-1.555.851 0 1.54.697 1.54 1.556v1.222c1.072.125 2.1.359 3.082.7.242.085.515.197.818.337a2.051 2.051 0 0 1 .996 2.708 1.875 1.875 0 0 1-2.497.934 12.628 12.628 0 0 0-1.394-.57c-1.08-.35-2.004-.525-2.772-.525-.732 0-1.313.135-1.741.405-.43.27-.643.664-.643 1.185z"/><path fill="#BFE4FF" fill-rule="nonzero" d="M2 23.36h-.5c-.828 0-1.5-.752-1.5-1.68C0 20.752.672 20 1.5 20h2c.828 0 1.5.752 1.5 1.68v24.64C5 47.248 4.328 48 3.5 48h-2C.672 48 0 47.248 0 46.32c0-.928.672-1.68 1.5-1.68H2V23.36z"/></g></svg>