<svg xmlns="http://www.w3.org/2000/svg" viewBox="0 0 48 48" width="48" height="48"><g fill="none" fill-rule="evenodd"><rect width="48" height="40" y="8" fill="#3E9CFA" rx="3"/><path fill="#BFE4FF" d="M7 0h34a3 3 0 0 1 3 3v3H4V3a3 3 0 0 1 3-3zM3 17h42v27a1 1 0 0 1-1 1H4a1 1 0 0 1-1-1V17z"/><circle cx="5" cy="13" r="2" fill="#FFF"/><circle cx="12" cy="13" r="2" fill="#FFF"/><path fill="#3E9CFA" fill-rule="nonzero" d="M7.07 38.959a1.49 1.49 0 0 1-.027-2.109l6.621-6.78 5.12 5.242 9.77-10.004 5.015 5.134 5.249-5.374a1.495 1.495 0 0 1 2.112-.027 1.49 1.49 0 0 1 .027 2.109l-7.388 7.565-5.015-5.135-9.77 10.004-5.12-5.24-4.482 4.588a1.495 1.495 0 0 1-2.112.027z"/></g></svg>