<svg xmlns="http://www.w3.org/2000/svg" xmlns:xlink="http://www.w3.org/1999/xlink" viewBox="0 0 16 16" width="16" height="16"><defs><linearGradient id="a" x1="0%" y1="0%" y2="50%"><stop offset="0%" stop-color="#F0FAFF"/><stop offset="100%" stop-color="#E6F7FF"/></linearGradient><circle id="b" cx="8" cy="8" r="8"/></defs><g fill="none" fill-rule="evenodd"><use fill="url(#a)" xlink:href="#b"/><circle cx="8" cy="8" r="7.5" stroke="#B3DFFF"/><path fill="#3E9CFA" stroke="#3E9CFA" d="M6.939 10.42L4.586 8.197a.268.268 0 0 1-.001-.393.302.302 0 0 1 .412-.001L7.13 9.817l3.86-4.222a.302.302 0 0 1 .41-.027c.122.101.135.277.03.392l-4.065 4.445a.296.296 0 0 1-.209.095.306.306 0 0 1-.216-.08z"/></g></svg>