<svg xmlns="http://www.w3.org/2000/svg" width="36" height="36" viewBox="0 0 36 36">
  <g fill="none" fill-rule="evenodd">
    <path fill="#DFE4EB" d="M18,0 C8.07457627,0 0,8.07301173 0,18.0078227 C0,27.9269883 8.07457627,36 18,36 C27.9254237,36 36,27.9269883 36,18.0078227 C36,8.07301173 27.9254237,0 18,0 L18,0 Z"/>
    <path fill="#FFF" d="M24.7701868,18.5384615 L15.3419521,27.7692308 C15.1879576,27.9230769 14.9868219,28 14.7856862,28 C14.5845506,28 14.3834149,27.9230769 14.2309918,27.7692308 C13.9230027,27.4769231 13.9230027,26.9846154 14.2309918,26.6923077 L23.1029606,18 L14.2309918,9.30769231 C13.9230027,9.01538462 13.9230027,8.52307692 14.2309918,8.23076923 C14.5374094,7.92307692 15.0339631,7.92307692 15.3419521,8.23076923 L24.7701868,17.4615385 C25.0766044,17.7538462 25.0766044,18.2461538 24.7701868,18.5384615 L24.7701868,18.5384615 Z"/>
  </g>
</svg>
