<?xml version="1.0" encoding="utf-8"?><svg width="242" height="238" viewBox="0 0 242 238" xmlns="http://www.w3.org/2000/svg" xmlns:xlink="http://www.w3.org/1999/xlink"><view id="automation" viewBox="50 189 48 48"/><svg width="48" height="48" viewBox="-1 -1 48 48" x="50" y="189" xmlns="http://www.w3.org/2000/svg"><g fill="none" fill-rule="evenodd" transform="translate(1 1)"><path stroke="#334873" stroke-width="2" d="M44 40c0 2.21-1.79 4-4 4H4c-2.21 0-4-1.79-4-4V4c0-2.21 1.79-4 4-4h36c2.21 0 4 1.79 4 4v36z" stroke-linecap="round" stroke-linejoin="round"/><path fill="#E5EFF4" stroke="#344973" stroke-width="2" d="M0 8V4c0-2.21 1.79-4 4-4h36c2.21 0 4 1.79 4 4v4H0z" stroke-linecap="round" stroke-linejoin="round"/><path fill="#344973" d="M5 4a1 1 0 1 1-2 0 1 1 0 0 1 2 0m4 0a1 1 0 1 1-2 0 1 1 0 0 1 2 0m4 0a1 1 0 1 1-2 0 1 1 0 0 1 2 0"/><path stroke="#1598D9" stroke-width="2" stroke-linecap="round" stroke-linejoin="round" d="M17 37l5-5 5 5"/><path stroke="#334873" stroke-width="2" d="M14 14h16M14 38h16M16 14v6.344c0 1.06.422 2.078 1.172 2.828L20 26l-2.828 2.828A4.001 4.001 0 0 0 16 31.656V38m12 0v-6.344c0-1.06-.422-2.078-1.172-2.828L24 26l2.828-2.828A4.001 4.001 0 0 0 28 20.344V14" stroke-linecap="round" stroke-linejoin="round"/><path stroke="#1598D9" stroke-width="2" stroke-linecap="round" stroke-linejoin="round" d="M24 22l-2 2-2-2"/></g></svg><view id="automation-2" viewBox="0 189 50 49"/><svg width="50" height="49" viewBox="-1 -1 50 49" y="189" xmlns="http://www.w3.org/2000/svg"><g fill="none" fill-rule="evenodd" transform="translate(1 1)"><path stroke="#1598D9" stroke-width="2" d="M32 42a6 6 0 0 1 0-12h4m4 0a6 6 0 0 1 0 12h-4" stroke-linecap="round" stroke-linejoin="round"/><path stroke="#1598D9" stroke-width="2" stroke-linecap="round" stroke-linejoin="round" d="M33 27l3 3-3 3M39 39l-3 3 3 3"/><path stroke="#334873" stroke-width="2" d="M24 42H4c-2.21 0-4-1.79-4-4V4c0-2.21 1.79-4 4-4h34c2.21 0 4 1.79 4 4v22" stroke-linecap="round" stroke-linejoin="round"/><path fill="#E5EFF4" stroke="#344973" stroke-width="2" d="M0 8V4c0-2.21 1.79-4 4-4h34c2.21 0 4 1.79 4 4v4H0z" stroke-linecap="round" stroke-linejoin="round"/><path stroke="#334873" stroke-width="2" d="M0 8h42" stroke-linecap="round" stroke-linejoin="round"/><path fill="#344973" d="M5 4a1 1 0 1 1-2 0 1 1 0 0 1 2 0m4 0a1 1 0 1 1-2 0 1 1 0 0 1 2 0m3 1a1 1 0 1 1 0-2 1 1 0 0 1 0 2z"/></g></svg><view id="cash-up" viewBox="50 48 50 44"/><svg viewBox="-1 -1 50 44" width="50" height="44" x="50" y="48" xmlns="http://www.w3.org/2000/svg"><g fill="none" fill-rule="evenodd" stroke-width="2" stroke-linecap="round" stroke-linejoin="round"><path stroke="#334873" d="M25.933 30.275C30.197 27.401 33 22.527 33 17c0-8.836-7.164-16-16-16C8.163 1 1 8.163 1 17c0 6.582 3.976 12.23 9.656 14.688"/><path stroke="#334873" d="M42 22L27 37l-8-8L7 41"/><path fill="#E5EFF4" stroke="#344973" d="M47 17H37l10 10z"/><path stroke="#1598D9" d="M21 21c-.132 1.566-1.87 2-3.996 2C14.794 23 13 21.658 13 20v-6c0-1.658 1.794-3 4.004-3 2.126 0 3.864.434 3.996 2m-10 2h6m-6 4h6"/></g></svg><view id="check" viewBox="150 76 26 26"/><svg width="26" height="26" viewBox="-1 -1 26 26" x="150" y="76" xmlns="http://www.w3.org/2000/svg"><title>icon-check</title><defs><circle id="ada" cx="12" cy="12" r="12"/><mask id="adb" x="0" y="0" width="24" height="24" fill="#fff"><use xlink:href="#ada"/></mask></defs><g fill="#FFF" fill-rule="evenodd"><use stroke="#E4E5E6" mask="url(#adb)" stroke-width="2" xlink:href="#ada"/><path d="M10.636 15.387l-3.025-3.11a.399.399 0 0 1-.002-.55.366.366 0 0 1 .53-.003l2.741 2.819 4.962-5.91a.365.365 0 0 1 .53-.037.4.4 0 0 1 .036.548l-5.225 6.222a.368.368 0 0 1-.547.021z" stroke="#1598D9"/></g></svg><view id="check--bg" viewBox="150 50 26 26"/><svg width="26" height="26" viewBox="-1 -1 26 26" x="150" y="50" xmlns="http://www.w3.org/2000/svg"><title>icon-check--bg</title><defs><circle id="aea" cx="12" cy="12" r="12"/><mask id="aeb" x="0" y="0" width="24" height="24" fill="#fff"><use xlink:href="#aea"/></mask></defs><g fill="none" fill-rule="evenodd"><use stroke="#D0E9F5" mask="url(#aeb)" stroke-width="2" fill="#F7FCFF" xlink:href="#aea"/><path d="M10.636 15.387l-3.025-3.11a.399.399 0 0 1-.002-.55.366.366 0 0 1 .53-.003l2.741 2.819 4.962-5.91a.365.365 0 0 1 .53-.037.4.4 0 0 1 .036.548l-5.225 6.222a.368.368 0 0 1-.547.021z" stroke="#1598D9" fill="#FFF"/></g></svg><view id="check--disabled" viewBox="194 143 26 26"/><svg width="26" height="26" viewBox="-1 -1 26 26" x="194" y="143" xmlns="http://www.w3.org/2000/svg"><title>icon-check--disabled</title><defs><circle id="afa" cx="12" cy="12" r="12"/><mask id="afb" x="0" y="0" width="24" height="24" fill="#fff"><use xlink:href="#afa"/></mask></defs><g fill="#FFF" stroke="#E4E5E6" fill-rule="evenodd"><use mask="url(#afb)" stroke-width="2" xlink:href="#afa"/><path d="M10.636 15.387l-3.025-3.11a.399.399 0 0 1-.002-.55.366.366 0 0 1 .53-.003l2.741 2.819 4.962-5.91a.365.365 0 0 1 .53-.037.4.4 0 0 1 .036.548l-5.225 6.222a.368.368 0 0 1-.547.021z"/></g></svg><view id="close" viewBox="176 50 14 14"/><svg width="14" height="14" viewBox="-1 -1 14 14" x="176" y="50" xmlns="http://www.w3.org/2000/svg"><title>icon-close</title><g fill="#42464D" fill-rule="evenodd"><path d="M1.05 2.464A1 1 0 0 1 2.464 1.05l8.486 8.486a1 1 0 0 1-1.414 1.414L1.05 2.464z"/><path d="M10.95 2.464A1 1 0 0 0 9.536 1.05L1.05 9.536a1 1 0 0 0 1.414 1.414l8.486-8.486z"/></g></svg><view id="cloud" viewBox="90 93 50 46"/><svg viewBox="-1 -1 50 46" width="50" height="46" x="90" y="93" xmlns="http://www.w3.org/2000/svg"><g fill="none" fill-rule="evenodd"><path stroke="#334873" stroke-width="2" d="M47 39.182C47 41.292 45.21 43 43 43H5c-2.21 0-4-1.709-4-3.818V4.818C1 2.708 2.79 1 5 1h38c2.21 0 4 1.709 4 3.818v34.364z" stroke-linecap="round" stroke-linejoin="round"/><path fill="#E5EFF4" stroke="#344973" stroke-width="2" d="M1 9V5c0-2.21 1.79-4 4-4h38c2.21 0 4 1.79 4 4v4H1z" stroke-linecap="round" stroke-linejoin="round"/><path fill="#344973" d="M6 5a1 1 0 1 1-2 0 1 1 0 0 1 2 0m4 0a1 1 0 1 1-2 0 1 1 0 0 1 2 0m4 0a1 1 0 1 1-2 0 1 1 0 0 1 2 0"/><path stroke="#1598D9" stroke-width="2" d="M31 23c-.36 0-.71.046-1.052.106C28.578 20.668 25.996 19 23 19a8 8 0 0 0-8 8c-2.21 0-4 1.79-4 4s1.79 4 4 4h16a6 6 0 1 0 0-12z" stroke-linecap="round" stroke-linejoin="round"/></g></svg><view id="contract" viewBox="150 0 42 50"/><svg width="42" height="50" viewBox="-1 -1 42 50" x="150" xmlns="http://www.w3.org/2000/svg"><title>icon-contract</title><g stroke-width="2" fill="none" fill-rule="evenodd" stroke-linecap="round" stroke-linejoin="round"><path stroke="#344973" fill="#E5EFF4" d="M33 37l-2 10 4-2 4 2-2-10m2-4c0 2.21-1.79 4-4 4s-4-1.79-4-4 1.79-4 4-4 4 1.79 4 4zM1 13h12V1"/><path stroke="#334873" d="M27 43H1V13L13 1h22v24"/><path d="M21 16.658c.132 1.306 1.87 2.34 3.996 2.34 2.21 0 4.004-1.12 4.004-2.498 0-2.038-3.298-2.38-3.996-2.5-.7-.12-4.004-.464-4.004-2.5 0-1.382 1.794-2.502 4.004-2.502 2.126 0 3.864 1.036 3.996 2.34" stroke="#1598D9"/><path d="M5 21h10M5 29h22M5 37h8" stroke="#334873"/><path d="M25 7v14" stroke="#1598D9"/></g></svg><view id="credit-score" viewBox="146 189 48 48"/><svg width="48" height="48" viewBox="-1 -1 48 48" x="146" y="189" xmlns="http://www.w3.org/2000/svg"><title>icon-credit-score</title><g stroke-width="2" fill="none" fill-rule="evenodd" stroke-linecap="round" stroke-linejoin="round"><path d="M45 23c0 12.15-9.85 22-22 22S1 35.15 1 23 10.85 1 23 1s22 9.85 22 22z" stroke="#33486B" fill="#FFF"/><path d="M23 1v6m0 38v-6M1 23h12m32 0H33" stroke="#334873"/><path d="M17 28c0 2.762 2.686 5 6 5s6-2.238 6-5c0-2.76-2.686-5-6-5s-6-2.238-6-5c0-2.76 2.686-5 6-5s6 2.24 6 5m-6-7v24" stroke="#1598D9"/></g></svg><view id="currency" viewBox="192 50 50 50"/><svg width="50" height="50" viewBox="-1 -1 50 50" x="192" y="50" xmlns="http://www.w3.org/2000/svg"><title>icon-currency</title><g stroke-width="2" fill="none" fill-rule="evenodd" stroke-linecap="round" stroke-linejoin="round"><path d="M15 45c-5.524-.018-9.312-4.75-10-10M45 8.997l-2 4-4-2m-6-8c5.524.018 9.312 4.75 10 10" stroke="#334873"/><path d="M15 29C7.268 29 1 22.732 1 15S7.268 1 15 1s14 6.268 14 14" stroke="#344973" fill="#E5EFF4"/><path d="M15 31c0-8.836 7.164-16 16-16s16 7.164 16 16-7.164 16-16 16-16-7.164-16-16z" stroke="#33486B" fill="#FFF"/><path d="M25 35c0 2.21 2.686 4 6 4s6-1.79 6-4c0-2.208-2.686-4-6-4s-6-1.79-6-4c0-2.208 2.686-4 6-4s6 1.792 6 4m-6-6v20" stroke="#1598D9"/><path d="M21 11c0-2.208-2.686-4-6-4s-6 1.792-6 4v8c0 2.208 2.686 4 6 4M7 13h10M7 17h10M3 39l2-4 4 2" stroke="#334873"/></g></svg><view id="earn" viewBox="98 143 48 46"/><svg width="48" height="46" viewBox="-1 -1 48 46" x="98" y="143" xmlns="http://www.w3.org/2000/svg"><title>icon-earn</title><g fill="none" fill-rule="evenodd"><path d="M6.745 10.822l-4.104 2.984c-1.028.748-1.64 1.974-1.64 3.284V39c0 2.21 1.712 4 3.826 4h36.348c2.112 0 3.826-1.79 3.826-4V17.09c0-1.31-.614-2.536-1.642-3.284l-4.062-2.954" stroke="#334873" stroke-width="2" stroke-linecap="round" stroke-linejoin="round"/><path d="M7 20h32l-10.942 7.628a9.052 9.052 0 0 1-10.116 0L7 20zm0 0V5h32v15H7z" fill="#E5EFF4"/><path d="M31.212 4.972l-2.75-2a9.224 9.224 0 0 0-10.924 0l-2.782 2.024M5 19l12.942 8.628a9.052 9.052 0 0 0 10.116 0L41 19" stroke="#334873" stroke-width="2" stroke-linecap="round" stroke-linejoin="round"/><path stroke="#334873" stroke-width="2" stroke-linecap="round" stroke-linejoin="round" d="M7 20V5h32v15"/><path d="M19 17.127C19.132 18.171 20.87 19 22.996 19c2.21 0 4.004-.896 4.004-1.998 0-1.632-3.298-1.904-3.996-2.002-.7-.094-4.004-.37-4.004-2 0-1.104 1.794-2 4.004-2 2.126 0 3.864.828 3.996 1.872M23 9v12" stroke="#1598D9" stroke-width="2" stroke-linecap="round" stroke-linejoin="round"/><path d="M14 25h17m0-16h4M11 21h4" stroke="#334873" stroke-width="2" stroke-linecap="round" stroke-linejoin="round"/></g></svg><view id="error" viewBox="150 102 26 26"/><svg width="26" height="26" viewBox="-1 -1 26 26" x="150" y="102" xmlns="http://www.w3.org/2000/svg"><title>icon-cross</title><defs><circle id="ama" cx="12" cy="12" r="12"/><mask id="amb" x="0" y="0" width="24" height="24" fill="#fff"><use xlink:href="#ama"/></mask></defs><g stroke-width="2" fill="none" fill-rule="evenodd"><use stroke-opacity=".4" stroke="#E64D2E" mask="url(#amb)" fill="#FFF" xlink:href="#ama"/><path d="M15 9l-6 6m6 0L9 9" stroke="#E64C2E" stroke-linecap="round"/></g></svg><view id="exchange" viewBox="192 100 48 40"/><svg viewBox="-1 -1 48 40" width="48" height="40" x="192" y="100" xmlns="http://www.w3.org/2000/svg"><g fill="none" fill-rule="evenodd" stroke-width="2" stroke-linecap="round" stroke-linejoin="round"><path stroke="#1598D9" d="M27 13c0 2.21-1.79 4-4 4s-4-1.79-4-4 1.79-4 4-4 4 1.79 4 4zm4 12a8 8 0 0 0-16 0h16z"/><path fill="#E5EFF4" stroke="#344973" d="M15 5c0 2.21-1.79 4-4 4S7 7.21 7 5s1.79-4 4-4 4 1.79 4 4z"/><path stroke="#334873" d="M9 19c0 2.21-1.79 4-4 4s-4-1.79-4-4 1.79-4 4-4 4 1.79 4 4zm6 14c0 2.21-1.79 4-4 4s-4-1.79-4-4 1.79-4 4-4 4 1.79 4 4z"/><path fill="#E5EFF4" stroke="#344973" d="M31 33c0-2.21 1.79-4 4-4s4 1.79 4 4-1.79 4-4 4-4-1.79-4-4z"/><path stroke="#334873" d="M37 19c0-2.21 1.79-4 4-4s4 1.79 4 4-1.79 4-4 4-4-1.79-4-4zM31 5c0-2.21 1.79-4 4-4s4 1.79 4 4-1.79 4-4 4-4-1.79-4-4zM14 8l2 2m-7 9h4m1 11l2-2m16 2l-2-2m7-9h-4M32 8l-2 2"/></g></svg><view id="hamburger" viewBox="50 32 18 14"/><svg width="18" height="14" viewBox="-1 -1 18 14" x="50" y="32" xmlns="http://www.w3.org/2000/svg"><title>strokes</title><g fill="#42464D" fill-rule="evenodd"><rect width="16" height="2" rx="1"/><rect y="5" width="16" height="2" rx="1"/><rect y="10" width="16" height="2" rx="1"/></g></svg><view id="help" viewBox="220 143 22 22"/><svg width="22" height="22" viewBox="-1 -1 22 22" x="220" y="143" xmlns="http://www.w3.org/2000/svg"><title>icon-help</title><path d="M10 0C4.486 0 0 4.486 0 10s4.486 10 10 10 10-4.486 10-10S15.514 0 10 0zm.77 15.77a.77.77 0 0 1-1.54 0V15a.77.77 0 0 1 1.54 0v.77zm1.105-6.321c-.682.44-1.106 1.264-1.106 2.15v1.093a.77.77 0 0 1-1.538 0V11.6c0-1.425.677-2.712 1.81-3.443.561-.362.89-.977.882-1.645-.014-1.013-.882-1.881-1.896-1.895-.525-.026-1.008.189-1.377.553a1.91 1.91 0 0 0-.573 1.37.77.77 0 0 1-1.539 0c0-.934.367-1.81 1.032-2.465A3.436 3.436 0 0 1 10 3.077h.05c1.855.026 3.385 1.557 3.411 3.412a3.444 3.444 0 0 1-1.586 2.96z" fill="#C5CCD6" fill-rule="evenodd"/></svg><view id="help--active" viewBox="194 189 22 22"/><svg width="22" height="22" viewBox="-1 -1 22 22" x="194" y="189" xmlns="http://www.w3.org/2000/svg"><title>Fill 879</title><path d="M10 0C4.486 0 0 4.486 0 10s4.486 10 10 10 10-4.486 10-10S15.514 0 10 0zm.77 15.77a.77.77 0 0 1-1.54 0V15a.77.77 0 0 1 1.54 0v.77zm1.105-6.321c-.682.44-1.106 1.264-1.106 2.15v1.093a.77.77 0 0 1-1.538 0V11.6c0-1.425.677-2.712 1.81-3.443.561-.362.89-.977.882-1.645-.014-1.013-.882-1.881-1.896-1.895-.525-.026-1.008.189-1.377.553a1.91 1.91 0 0 0-.573 1.37.77.77 0 0 1-1.539 0c0-.934.367-1.81 1.032-2.465A3.436 3.436 0 0 1 10 3.077h.05c1.855.026 3.385 1.557 3.411 3.412a3.444 3.444 0 0 1-1.586 2.96z" fill="#18AAF2" fill-rule="evenodd"/></svg><view id="hide" viewBox="150 128 20 15"/><svg width="20" height="15" viewBox="-1 -1 20 15" x="150" y="128" xmlns="http://www.w3.org/2000/svg"><title>icon-hide</title><path d="M13.96 2.728c-.005-.138 1.293-1.245 1.299-1.55.006-.306-.873-1.183-1.168-1.11C13.796.143 2.663 11.467 2.65 11.735c-.013.268.96 1.236 1.198 1.201.238-.034 1.53-1.59 1.745-1.635.215-.046 1.748.798 3.369.78 5.022 0 8.95-5.476 8.95-5.476S17.21 5.528 15.96 4.33c-.78-.815-1.995-1.463-2-1.601zM8.962 10.71a4.03 4.03 0 0 1-2.201-.643l1.202-1.225c.302.132.64.205.999.205 1.386 0 2.446-1.08 2.446-2.494 0-.366-.072-.71-.202-1.018l1.202-1.226c.4.644.63 1.412.63 2.244 0 2.328-1.793 4.157-4.076 4.157zM5.026 7.658a4.36 4.36 0 0 1-.141-1.104c0-2.327 1.794-4.156 4.077-4.156.379 0 .744.051 1.09.146l1.112-1.109a8.15 8.15 0 0 0-2.202-.309C3.577 1.126.089 6.603.089 6.603s1.136 1.617 2.98 3.093a237.84 237.84 0 0 1 1.957-2.038z" fill="#1598D9" fill-rule="evenodd"/></svg><view id="marketplace" viewBox="0 143 50 46"/><svg width="50" height="46" viewBox="-1 -1 50 46" y="143" xmlns="http://www.w3.org/2000/svg"><title>icon-marketplace</title><g stroke-width="2" fill="none" fill-rule="evenodd" stroke-linecap="round" stroke-linejoin="round"><path d="M3 29h42M3 21v10c0 2.21 1.79 4 4 4h34c2.21 0 4-1.79 4-4V21m-8 22H11c0-2.21 1.79-4 4-4h18c2.21 0 4 1.79 4 4zm-10-4v-4m-6 0v4" stroke="#334873"/><path d="M1.631 14L7.813 2.782A3.997 3.997 0 0 1 11.141 1H36.86c1.338 0 2.586.668 3.328 1.782L46.37 14c.412.618.63 1.342.63 2.084v2c0 2.176-1.378 2.244-3.498 2.734a4.607 4.607 0 0 1-5.702-4.472c0 2.542-2.058 4.6-4.6 4.6a4.6 4.6 0 0 1-4.6-4.6c0 2.542-2.058 4.6-4.6 4.6a4.6 4.6 0 0 1-4.6-4.6c0 2.542-2.058 4.6-4.6 4.6a4.6 4.6 0 0 1-4.6-4.6c0 2.9-2.682 5.174-5.7 4.472-2.12-.49-3.5-2.558-3.5-4.734 0-.742.22-1.466.632-2.084z" stroke="#344973" fill="#E5EFF4"/><path d="M10.2 16.347L15 1m4.4 15.347L21 1m7.6 15.347L27 1m10.8 15.347L33 1" stroke="#334873"/></g></svg><view id="money" viewBox="192 0 50 50"/><svg width="50" height="50" viewBox="-1 -1 50 50" x="192" xmlns="http://www.w3.org/2000/svg"><title>icon-money</title><g stroke-width="2" fill="none" fill-rule="evenodd" stroke-linecap="round" stroke-linejoin="round"><path d="M1 43h6s3.55-10.856 4-16c-1.584-1.5-10-2-10-2v18z" stroke="#344973" fill="#E5EFF4"/><path d="M31.98 34c.634-.53 1.02-1.232 1.02-2 0-2.444-3.298-2.854-3.996-3-.7-.144-4.004-.554-4.004-3 0-1.658 1.794-3 4.004-3 2.128 0 3.864 1.242 3.996 2.808M29 21v11" stroke="#1598D9"/><path d="M33 38l7.662-1.916A5.574 5.574 0 0 1 47 39l-11 5c-8.334 3.416-9.032 3.5-13 2L8 41" stroke="#334873"/><path d="M11 29l18 4c2.67.668 4 1.932 4 4.684V38l-2.692.672a5.996 5.996 0 0 1-2.632.064L19 37m25.668-.935c.22-.986.332-2.012.332-3.066 0-5.492-12-20-12-20h-8s-8.898 10.512-11 15.97M21 13h16" stroke="#334873"/><path d="M25 13S14.614 4.704 17 2c1.48-1.676 8 3 8 3s2.586-4 4-4c1.414 0 4 4 4 4s6.52-4.676 8-3c2.386 2.704-8 11-8 11h-8z" stroke="#334873"/></g></svg><view id="money-exchange" viewBox="100 50 48 40"/><svg width="48" height="40" viewBox="-1 -1 48 40" x="100" y="50" xmlns="http://www.w3.org/2000/svg"><g fill="none" fill-rule="evenodd"><path fill="#E5EFF4" stroke="#344973" stroke-width="2" d="M15 5c0 2.21-1.79 4-4 4S7 7.21 7 5s1.79-4 4-4 4 1.79 4 4z" stroke-linecap="round" stroke-linejoin="round"/><path stroke="#334873" stroke-width="2" d="M9 19c0 2.21-1.79 4-4 4s-4-1.79-4-4 1.79-4 4-4 4 1.79 4 4zm6 14c0 2.21-1.79 4-4 4s-4-1.79-4-4 1.79-4 4-4 4 1.79 4 4z" stroke-linecap="round" stroke-linejoin="round"/><path fill="#E5EFF4" stroke="#344973" stroke-width="2" d="M31 33c0-2.21 1.79-4 4-4s4 1.79 4 4-1.79 4-4 4-4-1.79-4-4z" stroke-linecap="round" stroke-linejoin="round"/><path stroke="#334873" stroke-width="2" d="M37 19c0-2.21 1.79-4 4-4s4 1.79 4 4-1.79 4-4 4-4-1.79-4-4zM31 5c0-2.21 1.79-4 4-4s4 1.79 4 4-1.79 4-4 4-4-1.79-4-4zM14 8l2 2m-7 9h4m1 11l2-2m16 2l-2-2m7-9h-4M32 8l-2 2" stroke-linecap="round" stroke-linejoin="round"/><g fill="#1698D9" fill-rule="nonzero"><path d="M22.998 26c-2.668 0-4.816-1.602-4.994-3.724a1 1 0 0 1 1.992-.168c.088 1.044 1.434 1.892 3 1.892 1.628 0 3.002-.916 3.002-2 0-.976-.948-1.604-2.982-1.98l-.216-.04C19.554 19.382 18 18.054 18 16c0-2.206 2.244-4 5.002-4 2.668 0 4.814 1.6 4.994 3.724a1 1 0 0 1-1.992.168c-.088-1.042-1.434-1.892-3-1.892-1.628 0-3.002.916-3.002 2 0 .976.95 1.604 2.986 1.98l.22.042c3.24.598 4.794 1.924 4.794 3.98C28 24.206 25.756 26 22.998 26z"/><path d="M23 28a1 1 0 0 1-1-1V11a1 1 0 0 1 2 0v16a1 1 0 0 1-1 1z"/></g></g></svg><view id="non-payment" viewBox="0 93 40 50"/><svg width="40" height="50" viewBox="-1 -1 40 50" y="93" xmlns="http://www.w3.org/2000/svg"><title>icon-non-payment</title><g stroke-width="2" fill="none" fill-rule="evenodd" stroke-linecap="round" stroke-linejoin="round"><path d="M19 47c7.916-2.584 18-13.25 18-20V7c-5.5 0-13.562-1.562-18-6C14.562 5.438 6.5 7 1 7v20c0 6.75 10.084 17.416 18 20z" stroke="#344973" fill="#E5EFF4"/><path d="M19 43C12.366 40.1 5 31.074 5 27V11c4.708-.502 9.916-2.266 14-5 4.084 2.734 9.292 4.498 14 5v16c0 4.074-7.366 13.1-14 16z" stroke="#33486B" fill="#FFF"/><path d="M12.997 27.255C13.195 29.345 15.8 31 18.993 31c3.314 0 6.004-1.794 6.004-4 0-3.26-4.946-3.806-5.996-4-1.048-.192-6.004-.74-6.004-4 0-2.21 2.692-4 6.004-4 3.192 0 5.798 1.654 5.996 3.744m-6-5.744v20" stroke="#1598D9"/></g></svg><view id="online-web" viewBox="100 0 50 50"/><svg width="50" height="50" viewBox="-1 -1 50 50" x="100" xmlns="http://www.w3.org/2000/svg"><g fill="none" fill-rule="evenodd" stroke-width="2" stroke-linecap="round" stroke-linejoin="round"><path stroke="#334873" d="M29 19c0-9.942-4.478-18-10-18S9 9.058 9 19c0 4.044.75 7.762 2 10.766"/><path stroke="#334873" d="M37 19c0-9.942-8.058-18-18-18S1 9.058 1 19c0 7.064 4.078 13.16 10 16.106"/><path stroke="#1598D9" d="M29 43v4m-8 0h16"/><path fill="#FFF" stroke="#33486B" d="M43 19c2.21 0 4 1.79 4 4v16c0 2.21-1.79 4-4 4H15c-2.21 0-4-1.79-4-4V23c0-2.21 1.79-4 4-4h28z"/><path fill="#E5EFF4" stroke="#344973" d="M43 19c2.21 0 4 1.79 4 4v14H11V23c0-2.21 1.79-4 4-4h28z"/><path stroke="#334873" d="M11 37h36M19 1v18M1 19h12M5 9h28M5 29h6"/></g></svg><view id="save-money" viewBox="146 143 48 46"/><svg width="48" height="46" viewBox="-1 -1 48 46" x="146" y="143" xmlns="http://www.w3.org/2000/svg"><title>icon-save-money</title><g stroke-width="2" fill="none" fill-rule="evenodd" stroke-linecap="round" stroke-linejoin="round"><path d="M37.933 30.275C42.197 27.401 45 22.527 45 17c0-8.836-7.164-16-16-16-8.838 0-16 7.164-16 16 0 6.582 3.976 12.23 9.656 14.688" stroke="#334873"/><path stroke="#334873" d="M36 38l-7-7-8 8L1 19"/><path stroke="#344973" fill="#E5EFF4" d="M41 43H31l10-10z"/><path d="M25 20.191c.132 1.568 1.87 2.808 3.996 2.808 2.21 0 4.004-1.344 4.004-2.998 0-2.446-3.298-2.856-3.996-3-.7-.144-4.004-.556-4.004-3 0-1.658 1.794-3.002 4.004-3.002 2.126 0 3.864 1.242 3.996 2.808M29 9v16" stroke="#1598D9"/></g></svg><view id="secure-payment" viewBox="0 48 50 45"/><svg width="50" height="45" viewBox="-1 -1 50 45" y="48" xmlns="http://www.w3.org/2000/svg"><title>icon-secure-payment</title><g stroke-width="2" fill="none" fill-rule="evenodd" stroke-linecap="round" stroke-linejoin="round"><path d="M25 31.958H5c-2.21 0-4-1.79-4-4v-22c0-2.21 1.79-4 4-4h34c2.21 0 4 1.79 4 4v12" stroke="#334873"/><path stroke="#344973" fill="#E5EFF4" d="M1 13.958h42v-6H1z"/><path d="M7 21.958h8m-8 4h14" stroke="#334873"/><path d="M39 41.958s-8-3.334-8-6v-12l8-2 8 2v12c0 2.666-8 6-8 6z" stroke="#33486B" fill="#FFF"/><path stroke="#1598D9" d="M39 26.081l-4 1v4.878h4zm0 5.877v5.608c1.696-.83 3.288-1.796 4-2.438v-3.17h-4z"/></g></svg><view id="sell" viewBox="98 189 48 48"/><svg viewBox="-1 -1 48 48" width="48" height="48" x="98" y="189" xmlns="http://www.w3.org/2000/svg"><g fill="none" fill-rule="evenodd" stroke-width="2" stroke-linecap="round" stroke-linejoin="round"><path stroke="#1598D9" d="M27 19c0 2.21-1.79 4-4 4s-4-1.79-4-4 1.79-4 4-4 4 1.79 4 4zm4 14c0-4.418-3.582-10-8-10s-8 5.582-8 10h16z"/><path fill="#E5EFF4" stroke="#344973" d="M31 19c2.21 0 4-1.79 4-4s-1.79-4-4-4a3.99 3.99 0 0 0-3.21 1.632C29.728 14.094 31 16.392 31 19zm3.366 10H39c0-4.418-3.582-10-8-10a7.921 7.921 0 0 1-.698 3.236c1.882 1.826 3.3 4.244 4.064 6.764zM18.21 12.633A3.982 3.982 0 0 0 15 11.001a4 4 0 0 0 0 8c0-2.608 1.274-4.906 3.21-6.368z"/><path fill="#E5EFF4" stroke="#344973" d="M15.697 22.235A7.921 7.921 0 0 1 15 19c-4.418 0-8 5.582-8 10h4.634c.764-2.52 2.184-4.938 4.064-6.764z"/><path stroke="#334873" d="M45 23c0 12.15-9.85 22-22 22S1 35.15 1 23 10.85 1 23 1s22 9.85 22 22zM23 1v6m0 38v-6M1 23h4m40 0h-4"/></g></svg><view id="sent" viewBox="50 143 48 46"/><svg width="48" height="46" viewBox="-1 -1 48 46" x="50" y="143" xmlns="http://www.w3.org/2000/svg"><title>icon-sent</title><g stroke-width="2" fill="none" fill-rule="evenodd" stroke-linecap="round" stroke-linejoin="round"><path d="M13 33c0-5.522 4.478-10 10-10s10 4.478 10 10-4.478 10-10 10-10-4.478-10-10z" stroke="#33486B" fill="#FFF"/><path stroke="#1598D9" d="M17 33l4 4 7-7"/><path d="M9 31H5c-2.21 0-4-1.79-4-4V5c0-2.21 1.79-4 4-4h36c2.21 0 4 1.79 4 4v22c0 2.21-1.79 4-4 4h-4" stroke="#334873"/><path d="M5 5l15.54 11.222a4.165 4.165 0 0 0 4.92 0L41 5M5 27l10-10m26 10L31 17" stroke="#334873"/></g></svg><view id="shake" viewBox="50 0 50 32"/><svg width="50" height="32" viewBox="-1 -1 50 32" x="50" xmlns="http://www.w3.org/2000/svg"><title>icon-shake</title><g stroke-width="2" fill="none" fill-rule="evenodd" stroke-linecap="round" stroke-linejoin="round"><path d="M8 16.94c.716.613 2.927 3.134 3.968 4.019 3.763 3.194 8.155 6.525 8.922 7.036.65.434 2.036 1.005 2.974 1.005.899 0 1.694-.195 1.983-1.005 1.463 1.357 3.79-.065 3.966-2.01 1.197 1.131 4.187.07 3.965-2.01 1.42.992 4.037-.777 2.974-3.016-1.33-2.807-8.86-7.98-11.896-11.057-1.73.633-1.664.872-2.974 1.005-.958 1.45-2.519 2.824-4.957 2.01-2.44-.814-.308-4.606 1.405-6.343 3.403-3.45 5.509-4.513 9.5-2.704a111.906 111.906 0 0 0 7.931 3.203M20 5h-9m26 15.964L40 19m-6 5c-1.03-.812-6-6-6-6m2 8c-1.296-1.036-4.464-4.416-5-5m1 7c-1.334-1.124-3.916-3.84-5-5" stroke="#334873"/><path d="M1 19h6s3.55-10.856 4-16C9.416 1.5 1 1 1 1v18zM35 5c1.346 2.16 5.266 13.41 5.982 16H47V3c-7.741 0-12 2-12 2z" stroke="#344973" fill="#E5EFF4"/></g></svg><view id="show" viewBox="170 128 20 13"/><svg width="20" height="13" viewBox="-1 -1 20 13" x="170" y="128" xmlns="http://www.w3.org/2000/svg"><title>icon-show</title><g fill="#1598D9" fill-rule="evenodd"><path d="M8.962.067C3.577.067.089 5.5.089 5.5s3.85 5.433 8.873 5.433c5.022 0 8.949-5.433 8.949-5.433S14.346.067 8.961.067zm0 9.508c-2.283 0-4.077-1.814-4.077-4.123 0-2.31 1.794-4.124 4.077-4.124s4.076 1.814 4.076 4.124c0 2.309-1.793 4.123-4.076 4.123z"/><path d="M9.016 3.026C7.63 3.026 6.57 4.098 6.57 5.5c0 1.402 1.06 2.474 2.446 2.474 1.386 0 2.446-1.072 2.446-2.474 0-1.402-1.06-2.474-2.446-2.474z"/></g></svg><view id="support" viewBox="0 0 50 48"/><svg width="50" height="48" viewBox="-1 -1 50 48" xmlns="http://www.w3.org/2000/svg"><title>icon-support</title><g fill="none" fill-rule="evenodd"><path d="M47 41c0 2.21-1.79 4-4 4H5c-2.21 0-4-1.79-4-4V5c0-2.21 1.79-4 4-4h38c2.21 0 4 1.79 4 4v36z" stroke="#334873" stroke-width="2" stroke-linecap="round" stroke-linejoin="round"/><path d="M1 9V5c0-2.21 1.79-4 4-4h38c2.21 0 4 1.79 4 4v4H1z" stroke="#344973" stroke-width="2" stroke-linecap="round" stroke-linejoin="round" fill="#E5EFF4"/><path d="M6 5a1 1 0 1 1-2 0 1 1 0 0 1 2 0m4 0a1 1 0 1 1-2 0 1 1 0 0 1 2 0m4 0a1 1 0 1 1-2 0 1 1 0 0 1 2 0" fill="#344973"/><path d="M39 28a7 7 0 1 1-14 0 7 7 0 0 1 14 0zm-2 5l6 6" stroke="#1598D9" stroke-width="2" stroke-linecap="round" stroke-linejoin="round"/><path d="M5 15h10m6 0h6m6 0h10M5 21h6m6 0h8m-4 6h-6M5 27h4m-4 6h12M5 39h16" stroke="#334873" stroke-width="2" stroke-linecap="round" stroke-linejoin="round"/></g></svg><view id="support-2" viewBox="40 93 50 46"/><svg width="50" height="46" viewBox="-1 -1 50 46" x="40" y="93" xmlns="http://www.w3.org/2000/svg"><title>icon-support</title><g fill="none" fill-rule="evenodd" stroke-linecap="round" stroke-linejoin="round"><path d="M43 43H5c-2.21 0-4-1.79-4-4V5c0-2.21 1.79-4 4-4h38c2.21 0 4 1.79 4 4v34c0 2.21-1.79 4-4 4zM1 9h46" stroke="#334873" stroke-width="2"/><path d="M1 9V5c0-2.21 1.79-4 4-4h38c2.21 0 4 1.79 4 4v4H1z" stroke="#344973" stroke-width="2" fill="#E5EFF4"/><path d="M6 5a1 1 0 1 1-2 0 1 1 0 0 1 2 0m4 0a1 1 0 1 1-2 0 1 1 0 0 1 2 0m4 0a1 1 0 1 1-2 0 1 1 0 0 1 2 0" fill="#344974"/><path d="M24 15c-7.18 0-13 4.924-13 11s5.82 11 13 11c1.534 0 3-.236 4.366-.65L33 39l-1.264-4.174C34.924 32.822 37 29.62 37 26c0-6.076-5.82-11-13-11z" stroke="#33486B" stroke-width="2" fill="#FFF"/><path d="M19 26a1 1 0 1 1-2 0 1 1 0 0 1 2 0zm6 0a1 1 0 1 1-2 0 1 1 0 0 1 2 0zm6 0a1 1 0 1 1-2 0 1 1 0 0 1 2 0z" stroke="#1598D9" stroke-width="2"/></g></svg><view id="tick--blue" viewBox="176 87 12 10"/><svg width="12" height="10" viewBox="-1 -1 12 10" x="176" y="87" xmlns="http://www.w3.org/2000/svg"><title>check-single</title><path d="M3.636 7.387L.61 4.277a.399.399 0 0 1-.002-.55.366.366 0 0 1 .53-.003L3.88 6.543 8.842.633a.365.365 0 0 1 .53-.037.4.4 0 0 1 .036.548L4.183 7.366a.368.368 0 0 1-.547.021z" fill="#1698D9" stroke="#1698D9" fill-rule="evenodd"/></svg><view id="tick--gray" viewBox="176 64 13 11"/><svg width="13" height="11" viewBox="-1 -1 13 11" x="176" y="64" xmlns="http://www.w3.org/2000/svg"><title>checkmark</title><path d="M4.136 7.888L1.11 4.776a.4.4 0 0 1-.002-.55.366.366 0 0 1 .53-.002l2.741 2.82 4.962-5.91a.365.365 0 0 1 .53-.038.4.4 0 0 1 .036.548L4.683 7.867a.368.368 0 0 1-.547.02z" fill="#FFF" stroke="#D7D8D9" fill-rule="evenodd"/></svg><view id="tick--green" viewBox="176 76 13 11"/><svg width="13" height="11" viewBox="-1 -1 13 11" x="176" y="76" xmlns="http://www.w3.org/2000/svg"><title>checkmark</title><path d="M4.136 7.888L1.11 4.776a.4.4 0 0 1-.002-.55.366.366 0 0 1 .53-.002l2.741 2.82 4.962-5.91a.365.365 0 0 1 .53-.038.4.4 0 0 1 .036.548L4.683 7.867a.368.368 0 0 1-.547.02z" stroke="#0ABFBF" fill="none"/></svg><view id="tooltip" viewBox="194 169 18 18"/><svg width="18" height="18" viewBox="-1 -1 18 18" x="194" y="169" xmlns="http://www.w3.org/2000/svg"><title>icon-help</title><g fill="none" fill-rule="evenodd"><path d="M8 0a8 8 0 1 0 0 16A8 8 0 0 0 8 0z" fill="#CDD0D1"/><path d="M8 11a1 1 0 1 0 0 2 1 1 0 1 0 0-2zM8 3a3 3 0 0 0-3 3 1 1 0 1 0 2 0 1 1 0 1 1 2 0 1 1 0 0 1-1 1 1 1 0 0 0-1 1v1a1 1 0 1 0 2 0v-.184A2.992 2.992 0 0 0 8 3z" fill="#FFF"/></g></svg></svg>