<svg xmlns="http://www.w3.org/2000/svg" id="icon-cards-check" viewBox="0 0 48 48" width="100%" height="100%">
  <g fill="none" fill-rule="evenodd">
    <path fill="#3E9CFA" fill-rule="nonzero" d="M26,8 C26,13.5228475 30.4771525,18 36,18 L36,29.9130435 C36,31.0656377 35.0789858,32 33.9428571,32 L2.05714286,32 C0.921014229,32 2.28388736e-16,31.0656377 0,29.9130435 L0,10.0869565 C-1.14194368e-16,8.93436226 0.921014229,8 2.05714286,8 L26,8 Z M10,15 C10,14.4477153 9.55228475,14 9,14 L4,14 C3.44771525,14 3,14.4477153 3,15 L3,18 C3,18.5522847 3.44771525,19 4,19 L9,19 C9.55228475,19 10,18.5522847 10,18 L10,15 Z"></path>
    <path fill="#82C8FA" d="M45.9428571,48 L14.0571429,48 C12.9210142,48 12,47.0656377 12,45.9130435 L12,26.0869565 C12,24.9343623 12.9210142,24 14.0571429,24 L45.9428571,24 C47.0789858,24 48,24.9343623 48,26.0869565 L48,45.9130435 C48,47.0656377 47.0789858,48 45.9428571,48 Z"></path>
    <rect width="5" height="2" x="40" y="43" fill="#BFE4FF" rx="1"></rect>
    <rect width="5" height="2" x="34" y="43" fill="#BFE4FF" rx="1"></rect>
    <rect width="36" height="5" x="12" y="29" fill="#FFF"></rect>
    <path fill="#BFE4FF" d="M44,8 C44,3.581722 40.418278,0 36,0 C31.581722,0 28,3.581722 28,8 C28,12.418278 31.581722,16 36,16 C40.418278,16 44,12.418278 44,8 Z"></path>
    <path fill="#3E9CFA" d="M35.0003749,11 C35.401331,11 35.77829,10.8423722 36.060259,10.5570459 L39.7075322,6.724179 C40.0974893,6.3291118 40.0974893,5.6906194 39.7075322,5.2955522 C39.3165752,4.9014826 38.6836442,4.9014826 38.2936871,5.2955522 L35.0003749,8.7722599 L33.7070629,7.2955522 C33.3171058,6.9014826 32.6841748,6.9014826 32.2932178,7.2955522 C31.9022607,7.6906194 31.9022607,8.3291118 32.2932178,8.724179 L33.9394909,10.5570459 C34.2234599,10.8423722 34.5984189,11 35.0003749,11 L35.0003749,11 L35.0003749,11 L35.0003749,11 L35.0003749,11 Z"></path>
  </g>
</svg>