<svg xmlns="http://www.w3.org/2000/svg" id="icon-premium-support" viewBox="0 0 42 48" width="100%" height="100%"><g fill="none" fill-rule="evenodd"><path fill="#82C8FA" d="M21 41l-1.936-5.019.436-1.389-.436-.445A3.74 3.74 0 0 1 18 31.531c0-.846.676-1.531 1.51-1.531h2.98c.834 0 1.51.685 1.51 1.53a3.74 3.74 0 0 1-1.064 2.617l-.436.445.436 1.39L21 41z"></path><path fill="#3E9CFA" d="M13.143 3.13C14.588 1.54 17.136 0 21 0c3.864 0 6.412 1.54 7.857 3.13a6.879 6.879 0 0 1 2.631 8.377c-.614 1.503-.96 2.346-1.036 2.529l.394.603a3.813 3.813 0 0 1-1.989 5.707 7.634 7.634 0 0 1-6.146 7.485 8.757 8.757 0 0 1-3.422 0 7.625 7.625 0 0 1-4.202-2.398h2.368a6.11 6.11 0 0 0 2.128.862 7.25 7.25 0 0 0 2.834 0c2.856-.569 4.904-3.063 4.904-5.949 0-.677.427-1.277 1.059-1.487.187-.063.366-.149.53-.256a2.23 2.23 0 0 0 .658-3.096l-.394-.603a1.59 1.59 0 0 1-.224-1.196l-2.408-2.516a.757.757 0 0 0-.952-.12c-1.548.97-3.075 1.449-4.59 1.449-1.515 0-3.042-.479-4.59-1.45a.757.757 0 0 0-.952.121l-2.408 2.516c.086.41.009.841-.224 1.196l-.394.603c-.087.132-.158.27-.213.412a.913.913 0 0 1 .207-.024c.521 0 .943.438.943.979v2.69c0 1.62 1.266 2.935 2.828 2.935H21c.52 0 .943.437.943.978 0 .54-.422.978-.943.978h-4.803c-2.603 0-4.713-2.19-4.713-4.891v-.315a3.814 3.814 0 0 1-.33-4.61l.394-.603c-.076-.183-.422-1.026-1.036-2.53a6.879 6.879 0 0 1 2.63-8.376z"></path><path fill="#3E9CFA" d="M20.851 48c-9.12-1.149-15.576-2.525-19.366-4.129a2.42 2.42 0 0 1-1.471-2.486c.207-1.923.558-4.17 1.052-6.743a4.055 4.055 0 0 1 3.121-3.188 20.883 20.883 0 0 0 3.81-1.223c1.907-.823 3.483-1.849 4.729-3.076L20.85 48l8.269-21c1.268 1.296 2.896 2.373 4.883 3.23 1.217.526 2.487.934 3.81 1.224a4.055 4.055 0 0 1 3.12 3.188c.495 2.573.846 4.82 1.053 6.743a2.42 2.42 0 0 1-1.47 2.486C36.721 45.476 30.166 46.853 20.85 48z"></path></g></svg>