<svg xmlns="http://www.w3.org/2000/svg" id="icon-auto-pay" viewBox="0 0 48 48" width="100%" height="100%"><g fill="none" fill-rule="evenodd"><path fill="#82C8FA" d="M6 3.055V2a2 2 0 0 1 2-2h19.005L42 14.942v12.113a9 9 0 1 0 0 17.89V46a2 2 0 0 1-2 2H8a2 2 0 0 1-2-2V20.945a9 9 0 1 0 0-17.89z"></path><path fill="#BFE4FF" d="M16.5 21h15a1.5 1.5 0 0 1 0 3h-15a1.5 1.5 0 0 1 0-3zm0 6h7a1.5 1.5 0 0 1 0 3h-7a1.5 1.5 0 0 1 0-3z"></path><path fill="#3E9CFA" d="M27 0l15 15H29a2 2 0 0 1-2-2V0zm14 43a7 7 0 1 0 0-14 7 7 0 0 0 0 14z"></path><path fill="#FFF" fill-rule="nonzero" d="M42.778 32.406c1.963.968 2.778 3.362 1.82 5.347-.957 1.985-3.324 2.81-5.287 1.841a3.96 3.96 0 0 1-1.8-1.798.49.49 0 0 1 .214-.655.48.48 0 0 1 .648.217 2.975 2.975 0 0 0 5.36-.033c.723-1.5.106-3.31-1.378-4.043a2.972 2.972 0 0 0-3.814 1.064h.485c.266 0 .482.218.482.488s-.216.487-.482.487h-1.544a.485.485 0 0 1-.482-.487v-1.56c0-.27.216-.489.482-.489.267 0 .483.219.483.488v.217a3.927 3.927 0 0 1 4.813-1.084z"></path><path fill="#3E9CFA" d="M7 19A7 7 0 1 0 7 5a7 7 0 0 0 0 14z"></path><path fill="#BFE4FF" d="M7.855 17H6.499v-1.212C4.837 15.528 4.083 14.35 4 13.421l1.627-.35c.059.656.53 1.245 1.544 1.245.59 0 1.014-.272 1.014-.714 0-.328-.26-.543-.731-.645l-1.05-.238c-1.32-.306-2.133-1.076-2.133-2.152 0-1.268.99-2.14 2.228-2.344V7h1.356v1.257c1.296.272 1.886 1.167 2.05 1.937l-1.638.419c-.07-.351-.27-.94-1.202-.94-.66 0-.99.373-.99.736 0 .306.235.543.695.645l1.026.216c1.58.34 2.204 1.223 2.204 2.242 0 1.042-.778 2.016-2.145 2.254V17z"></path></g></svg>