<svg xmlns="http://www.w3.org/2000/svg" id="icon-decentralized" viewBox="0 0 48 48" width="100%" height="100%">
  <g fill="none">
    <path fill="#BFE4FF" d="M16.108,17.523 L8.793,10.207 L10.207,8.793 L17.432,16.017 C16.947,16.477 16.502,16.981 16.108,17.523 Z M31.478,15.108 L41.293,5.293 L42.707,6.707 L32.983,16.432 C32.523,15.947 32.019,15.502 31.477,15.108 L31.478,15.108 Z M33.943,30.408 L42.111,36.708 L40.891,38.292 L32.633,31.922 C33.113,31.458 33.553,30.952 33.943,30.407 L33.943,30.408 Z M21.73,34.505 L18.955,43.3 L17.047,42.7 L19.877,33.737 C20.467,34.047 21.087,34.305 21.732,34.507 L21.73,34.505 Z M15.034,28.662 L4.37,32.928 L3.63,31.072 L14.355,26.782 C14.525,27.434 14.753,28.062 15.035,28.662 L15.034,28.662 Z"></path>
    <circle cx="42" cy="6" r="6" fill="#82C8FA"></circle>
    <circle cx="41.5" cy="37.5" r="5.5" fill="#82C8FA"></circle>
    <circle cx="4" cy="32" r="4" fill="#82C8FA"></circle>
    <circle cx="18" cy="43" r="5" fill="#82C8FA"></circle>
    <circle cx="10" cy="10" r="5" fill="#82C8FA"></circle>
    <path fill="#3E9CFA" d="M25,33 C29.97,33 34,28.97 34,24 C34,19.03 29.97,15 25,15 C20.03,15 16,19.03 16,24 C16,28.97 20.03,33 25,33 Z"></path>
  </g>
</svg>