<svg xmlns="http://www.w3.org/2000/svg" id="icon-chat" viewBox="0 0 48 48" width="100%" height="100%"><g fill="none" fill-rule="evenodd"><path fill="#82C8FA" d="M42 27.055a9 9 0 1 0 0 17.89V46a2 2 0 0 1-2 2H8a2 2 0 0 1-2-2V2a2 2 0 0 1 2-2h19.005L42 14.942v12.113z"></path><path fill="#BFE4FF" d="M16.5 21h15a1.5 1.5 0 0 1 0 3h-15a1.5 1.5 0 0 1 0-3zm0 6h7a1.5 1.5 0 0 1 0 3h-7a1.5 1.5 0 0 1 0-3z"></path><path fill="#3E9CFA" d="M27 0l15 15H29a2 2 0 0 1-2-2V0z"></path><path fill="#3E9CFA" fill-rule="nonzero" d="M41 29c-3.866 0-7 3.13-7 6.992 0 3.86 3.134 6.991 7 6.991s7-3.13 7-6.991A6.996 6.996 0 0 0 41 29zm0 11.986c-2.761 0-5-2.237-5-4.994a4.997 4.997 0 0 1 5-4.994c2.762 0 5 2.235 5 4.994a4.997 4.997 0 0 1-5 4.994z"></path><path fill="#82C8FA" d="M41 40a4 4 0 1 0 0-8v4l-2.628 3.015A3.985 3.985 0 0 0 41 40z"></path><g transform="translate(0 5)"><path fill="#3E9CFA" d="M2 0h8a2 2 0 0 1 2 2v6a2 2 0 0 1-2 2H8l-2 2-2-2H2a2 2 0 0 1-2-2V2a2 2 0 0 1 2-2z"></path><circle cx="3" cy="5" r="1" fill="#FFF"></circle><circle cx="6" cy="5" r="1" fill="#FFF"></circle><circle cx="9" cy="5" r="1" fill="#FFF"></circle></g></g></svg>