<svg xmlns="http://www.w3.org/2000/svg" id="icon-reporting" viewBox="0 0 48 48" width="100%" height="100%">
  <g fill="none" fill-rule="evenodd">
    <rect width="48" height="40" y="8" fill="#3E9CFA" rx="3"></rect>
    <path fill="#BFE4FF" d="M7 0L41 0C42.6568542-3.04359188e-16 44 1.34314575 44 3L44 6 4 6 4 3C4 1.34314575 5.34314575 3.04359188e-16 7 0zM3 17L45 17 45 44C45 44.5522847 44.5522847 45 44 45L4 45C3.44771525 45 3 44.5522847 3 44L3 17z"></path>
    <circle cx="5" cy="13" r="2" fill="#FFF"></circle>
    <circle cx="12" cy="13" r="2" fill="#FFF"></circle>
    <path fill="#3E9CFA" fill-rule="nonzero" d="M7.06962553,38.9590067 L7.06962553,38.9590067 C6.47993164,38.385098 6.46713521,37.4418117 7.04104391,36.8521178 C7.0416566,36.8514883 7.04226984,36.8508593 7.04288364,36.8502308 L13.6641849,30.0708457 L18.7830521,35.3119262 L28.5537985,25.3079027 L33.5685714,30.4424036 L38.8178653,25.0677825 C39.3941322,24.4777573 40.3393308,24.465771 40.9303745,25.0409933 L40.9303745,25.0409933 C41.5200684,25.614902 41.5328648,26.5581883 40.9589561,27.1478822 C40.9583434,27.1485117 40.9577302,27.1491407 40.9571164,27.1497692 L33.5685714,34.714716 L28.5537985,29.5802151 L18.7830521,39.5842386 L13.6641849,34.3431581 L9.18213469,38.9322175 C8.60586781,39.5222427 7.66066919,39.534229 7.06962553,38.9590067 Z"></path>
  </g>
</svg>