<svg xmlns="http://www.w3.org/2000/svg" id="icon-mass-pay" viewBox="0 0 48 48" width="100%" height="100%"><g fill="none" fill-rule="evenodd"><g fill-rule="nonzero"><path fill="#3E9CFA" d="M46.868 38l1.07 2.667c.296.736-.508 1.333-1.795 1.333H1.857C.57 42-.234 41.403.06 40.667L1.131 38h45.737zm0 6l1.07 2.667c.296.736-.508 1.333-1.795 1.333H1.857C.57 48-.234 47.403.06 46.667L1.131 44h45.737zm-4.281-20.833l5.352 11.666c.295.645-.509 1.167-1.796 1.167H1.857C.57 36-.234 35.478.06 34.833l5.352-11.666C5.71 22.522 6.718 22 7.668 22h32.664c.95 0 1.96.522 2.255 1.167z"></path><path fill="#82C8FA" d="M45 31.41c-2.351.369-3.993 1.348-4.343 2.59H29.349c4.224-.957 6.689-3.06 6.063-5.5-.626-2.44-3.612-4.543-7.24-5.5h8.821c1.044 1.242 3.097 2.221 5.43 2.59L45 31.41zm-42 0l2.577-5.82c2.333-.369 4.386-1.348 5.43-2.59h8.82c-3.627.957-6.613 3.06-7.239 5.5-.626 2.44 1.839 4.543 6.063 5.5H7.343c-.35-1.242-1.992-2.221-4.343-2.59z"></path></g><path fill="#BFE4FF" d="M16 10l8-10 8 10h-4v10h-8V10zM3 13l6-7 6 7h-3v7H6v-7zM33 13l6-7 6 7h-3v7h-6v-7z"></path></g></svg>