<svg xmlns="http://www.w3.org/2000/svg" id="icon-fx-pay" viewBox="0 0 48 48" width="100%" height="100%"><g fill="none" fill-rule="evenodd"><path fill="#82C8FA" d="M9.8 24v17.077H14L7 48l-7-6.923h4.2V24zM38.2 24V6.923H34L41 0l7 6.923h-4.2V24z"></path><circle cx="24" cy="24" r="20" fill="#3E9CFA"></circle><path fill="#82C8FA" fill-rule="nonzero" d="M24 42c-9.941 0-18-8.059-18-18S14.059 6 24 6s18 8.059 18 18-8.059 18-18 18zm0-1.714c8.994 0 16.286-7.292 16.286-16.286 0-8.994-7.292-16.286-16.286-16.286-8.994 0-16.286 7.292-16.286 16.286 0 8.994 7.292 16.286 16.286 16.286z"></path><path fill="#BFE4FF" d="M16.932 31H14V18h8.428v2.75h-5.514v2.75h4.85v2.641h-4.832V31zm19.031-13l-4.205 6.528L36 31h-3.54l-2.583-4.217L27.314 31h-3.43l4.223-6.51L23.883 18h3.504l2.582 4.217L32.551 18h3.412z"></path></g></svg>