<svg xmlns="http://www.w3.org/2000/svg" id="icon-trust" viewBox="0 0 48 46" width="100%" height="100%">
  <g fill="none" fill-rule="evenodd">
    <path fill="#3E9CFA" d="M7.04045765,28.4030591 C10.3797266,25.0507459 15.3482442,24.0315904 19.6990123,25.8065027 L20.6792261,26.2063846 L30.6375251,26.2063846 C32.4307232,26.2063846 33.8843975,27.6886718 33.8843975,29.5171658 C33.8843975,31.3456597 32.4307232,32.827947 30.6375251,32.827947 L24.4159985,32.827947 C23.7292101,32.827947 23.1724581,33.3956576 23.1724581,34.0959642 C23.1724581,34.7962708 23.7292101,35.3639814 24.4159985,35.3639814 L30.7193324,35.3639814 C33.8402053,35.3639814 36.3701728,32.7842162 36.3701728,29.6019145 L42.2457804,23.11576 C43.4526716,21.7834582 45.4620974,21.6233959 46.8572456,22.7484303 C46.8937136,22.7778378 46.9295084,22.808103 46.9646012,22.8392016 C48.2191259,23.9509417 48.3522726,25.8891961 47.2619926,27.1684138 L35.3875914,41.1005649 C33.9872284,42.7436009 31.9572206,43.6870868 29.822421,43.6870868 L12.8516567,43.6870868 L10.9738115,45.5685252 C10.4011353,46.1422971 9.47920603,46.144041 8.90441438,45.5724395 L0.440708787,37.1557084 C-0.139715014,36.578506 -0.147869006,35.6344243 0.422496336,35.0470429 C0.42542216,35.0440298 2.63140926,32.8293685 7.04045765,28.4030591 Z"></path>
    <g fill="#82C8FA" fill-rule="nonzero" transform="translate(16)">
      <path d="M8 5.24590164L8 0C8 0 6.61350568 1.6143717 4.61542251 2.37288134 2.54551519 3.03679108.0000895623293 3.3676021.0000895623293 3.3676021L.0000895623293 7.79661016C.0000895623293 7.79661016-.0535078376 13.0232558 2.46160047 16.2711864 5.2672537 19.5348837 8 20 8 20L8 12.1311475 5.46803035 13.5495862 5.95159352 10.5452849 3.90318703 8.41762692 6.73401516 7.97930525 8 5.24590164zM8 12.1311475L8 20C8 20 10.7327463 19.5348837 13.5383995 16.2711864 16.0535078 13.0232558 15.9999104 7.79661016 15.9999104 7.79661016L15.9999104 3.3676021C15.9999104 3.3676021 13.4544848 3.03679108 11.3845775 2.37288134 9.38649432 1.6143717 8 0 8 0L8 5.24590164 9.26598484 7.97930525 12.096813 8.41762692 10.0484065 10.5452849 10.5319697 13.5495862 8 12.1311475z"></path>
    </g>
  </g>
</svg>