<svg xmlns="http://www.w3.org/2000/svg" viewBox="0 0 72 72"><g fill="none" fill-rule="evenodd"><circle cx="36" cy="36" r="36" fill="#FFEDEF"/><g fill="#FA6470"><path d="M43.352 18.716c2.895 1.814 3.373 4.968 1.432 9.463l.354.523c1.037 1.53.592 3.582-.994 4.583-.246.155-.512.28-.792.37 0 3.157-2.31 5.876-5.519 6.494a8.134 8.134 0 0 1-3.074 0c-3.208-.618-5.519-3.337-5.519-6.495a3.484 3.484 0 0 1-.792-.37c-1.585-1-2.03-3.052-.994-4.582l.354-.523c-1.94-4.495-1.463-7.65 1.432-9.463 1.298-1.38 3.65-2.286 7.056-2.716 3.406.43 5.758 1.336 7.056 2.716zm.084 9.178l-2.162-2.183a.698.698 0 0 0-.856-.104c-1.39.842-2.76 1.257-4.121 1.257-1.361 0-2.732-.415-4.122-1.257a.698.698 0 0 0-.856.104l-2.162 2.183c.078.355.008.73-.2 1.038l-.355.523c-.607.897-.347 2.094.59 2.686.149.094.309.168.477.222.567.183.951.704.951 1.291 0 2.504 1.839 4.668 4.404 5.162.84.162 1.705.162 2.545 0 2.566-.494 4.404-2.658 4.404-5.162 0-.587.384-1.108.951-1.29.169-.055.329-.13.477-.223.938-.592 1.198-1.79.59-2.686l-.354-.523a1.34 1.34 0 0 1-.201-1.038z"/><path d="M42.454 39.704c.962.976 2.197 1.787 3.704 2.433.922.395 1.885.702 2.889.921a3.064 3.064 0 0 1 2.367 2.4c.374 1.939.64 3.631.798 5.08a1.821 1.821 0 0 1-1.116 1.872c-2.877 1.208-7.56 3.109-14.913 3.109-7.352 0-11.812-1.902-14.687-3.11a1.821 1.821 0 0 1-1.115-1.872c.157-1.448.423-3.14.798-5.078a3.064 3.064 0 0 1 2.367-2.4 15.916 15.916 0 0 0 2.889-.922c1.446-.62 2.642-1.392 3.586-2.316 2.105 1.563 4.196 2.335 6.275 2.316 2.08-.02 4.132-.83 6.158-2.433z"/></g><path fill="#F99" d="M44.655 48.51L42.035 51v-2.49H42a2 2 0 0 1-2-2V41a2 2 0 0 1 2-2h8a2 2 0 0 1 2 2v5.51a2 2 0 0 1-2 2h-5.345z"/><path fill="#FFEDEF" d="M48.453 44.235L46.188 46.5l-2.266-2.265a1.602 1.602 0 0 1 2.266-2.266 1.602 1.602 0 1 1 2.265 2.266z"/></g></svg>