<svg xmlns="http://www.w3.org/2000/svg" id="icon-commission" viewBox="0 0 48 44" width="100%" height="100%"><path fill="#82C8FA" d="M42 13h4.4c.884 0 1.6.781 1.6 1.745v20.51c0 .964-.716 1.745-1.6 1.745H9.6c-.884 0-1.6-.781-1.6-1.745V26.09h31a3 3 0 0 0 3-3V13z"></path><rect width="40" height="24" fill="#3E9CFA" rx="1.6"></rect><rect width="6" height="2" x="3" y="4" fill="#BFE4FF" rx="1"></rect><path fill="#FFF" d="M20 20a8 8 0 1 1 0-16 8 8 0 0 1 0 16zm1-4.051c1.14-.233 2-1.242 2-2.449 0-1.378-1.122-2.5-2.5-2.5h-1a.5.5 0 0 1 0-1h2a1 1 0 0 0 0-2H21v-.5a1 1 0 0 0-2 0v.55c-1.14.233-2 1.242-2 2.45 0 1.378 1.122 2.5 2.5 2.5h1a.5.5 0 0 1 0 1H18a1 1 0 0 0 0 2h1v.5a1 1 0 0 0 2 0v-.551z"></path><path fill="#3E9CFA" d="M36 31h4v8h3l-5 5-5-5h3z"></path></svg>