<svg xmlns="http://www.w3.org/2000/svg" id="icon-global" viewBox="0 0 48 48" width="100%" height="100%"><g fill="none" fill-rule="evenodd"><path fill="#3E9CFA" d="M27.34 29.39a41.367 41.367 0 0 0-5.442-.462V21.44h7.571a6.078 6.078 0 0 0-.659 2.761v1.42a3.407 3.407 0 0 0-1.467 2.79l-.003.98zm2.253 3.84c-.69 1.938-1.54 3.631-2.512 5.003a5.954 5.954 0 0 0-3.566 3.245 5.871 5.871 0 0 1-1.617.522V30.684c2.014.042 3.949.23 5.763.54.36.765.997 1.374 1.78 1.707l.152.3zm.074 4.164c.368-.673.712-1.39 1.03-2.147.114.148.238.287.373.418l.45.439c-.21.495-.64.897-1.202 1.08l-.651.21zm1.837-18.272c-.248.17-.483.358-.703.561h-8.903v-7.447c3.003-.06 5.858-.427 8.44-1.049.633 2.407 1.04 5.09 1.166 7.935zM42 19.43A6.374 6.374 0 0 0 37.961 18h-2.83c-.667 0-1.31.102-1.915.29-.164-2.684-.57-5.233-1.181-7.56 2.176-.65 4.117-1.49 5.736-2.482A20.989 20.989 0 0 1 42 19.431zm-21.854 9.497c-3.077.063-5.996.449-8.627 1.1-.619-2.613-.978-5.52-1.01-8.589h9.637v7.49zm0 1.757v11.314c-3.483-.579-6.484-4.556-8.175-10.271 2.472-.61 5.238-.98 8.175-1.043zm-10.322-.19c-2.287.7-4.306 1.612-5.958 2.69A20.995 20.995 0 0 1 0 21.439h8.757c.031 3.216.406 6.282 1.067 9.056zm.452 1.701c1.134 3.85 2.85 7.019 4.978 9.072a21.04 21.04 0 0 1-10.312-6.692c1.464-.934 3.271-1.744 5.334-2.38zm9.87-21.717c-2.841-.06-5.524-.41-7.934-.984C13.94 4.198 16.823.553 20.146.001V10.48zm0 1.757v7.447h-9.618c.094-3.054.513-5.933 1.188-8.498 2.58.622 5.43.99 8.43 1.05zm1.752-1.756V0c3.327.547 6.215 4.194 7.943 9.497-2.413.574-5.098.924-7.943.983zM10.512 9.04C8.57 8.459 6.848 7.725 5.416 6.88A21.027 21.027 0 0 1 15.254.731c-1.986 1.916-3.613 4.803-4.742 8.308zm-.493 1.688c-.717 2.726-1.15 5.759-1.245 8.955H.036a20.99 20.99 0 0 1 4.25-11.438c1.617.992 3.557 1.832 5.733 2.483zm21.523-1.686c-1.13-3.505-2.757-6.394-4.743-8.31a21.028 21.028 0 0 1 9.84 6.15c-1.432.847-3.155 1.58-5.097 2.16z"></path><path fill="#82C8FA" d="M36.5 48c3.414 0 6.827-.416 10.24-1.247.72-.087 1.26-.683 1.26-1.389V43.8c0-1.672-1.099-3.157-2.727-3.685l-3.17-1.03c-1.63-.528-2.728-2.013-2.728-3.685l1.2-1.168a2 2 0 0 0 .388-.529l1.263-2.494c.812 0 1.47-.64 1.47-1.436l-.004-1.357c-.003-.787-.658-1.423-1.466-1.423V24.2c0-2.32-1.93-4.2-4.312-4.2h-2.828c-2.381 0-4.312 1.88-4.312 4.2v2.793c-.808 0-1.463.636-1.466 1.423l-.004 1.362c0 .79.658 1.431 1.47 1.431l1.263 2.494a2 2 0 0 0 .389.53l1.199 1.167c0 1.672-1.099 3.157-2.727 3.685l-3.17 1.03C26.097 40.643 25 42.128 25 43.8v1.564c0 .706.54 1.302 1.26 1.39A43.151 43.151 0 0 0 36.5 48z"></path></g></svg>