<svg xmlns="http://www.w3.org/2000/svg" viewBox="0 0 72 72"><g fill="none" fill-rule="evenodd"><circle cx="36" cy="36" r="36" fill="#EDF8FF"/><path fill="#3E9CFA" d="M16.648 34.233l25.8-15.057a1.288 1.288 0 0 1 1.769.479l7.61 13.323a1.317 1.317 0 0 1-.475 1.789l-25.8 15.057a1.288 1.288 0 0 1-1.769-.479l-7.61-13.323a1.317 1.317 0 0 1 .475-1.789zm20.85 6.392c3.408-1.988 4.604-6.343 2.671-9.726-1.932-3.383-6.26-4.513-9.667-2.524-3.408 1.988-4.604 6.343-2.671 9.726 1.932 3.383 6.26 4.513 9.667 2.524zm-.633-2.6l-1.013.591-.54-.944c-1.359.522-2.447-.067-2.923-.755l1.06-.983c.337.486.952.74 1.71.297.44-.257.637-.654.44-.999-.146-.256-.436-.31-.834-.184l-.89.272c-1.123.338-2.075.093-2.554-.746-.564-.989-.212-2.1.623-2.8l-.545-.953 1.014-.592.56.98c1.09-.354 1.93.086 2.396.615l-1.04 1.041c-.208-.242-.62-.614-1.317-.208-.493.289-.574.724-.412 1.006.136.239.418.321.807.2l.863-.28c1.332-.424 2.193-.008 2.647.786.463.813.315 1.911-.601 2.694l.55.962zm-18.021-2.239l4.206-2.455 1.214 2.126-4.206 2.455-1.214-2.126zm35.153-2.01l1.83 3.202a1.317 1.317 0 0 1-.475 1.789l-25.8 15.057a1.288 1.288 0 0 1-1.769-.479l-1.074-1.88 25.651-14.97a3.308 3.308 0 0 0 1.637-2.72z"/><path fill="#82C8FA" d="M25 24v4h-8v3l-5-5 5-5v3zM47 45h8v-3l5 5-5 5v-3h-8z"/></g></svg>