<svg xmlns="http://www.w3.org/2000/svg" id="icon-invoice" viewBox="0 0 48 48" width="100%" height="100%"><g fill="none" fill-rule="evenodd"><path fill="#3E9CFA" d="M24 0v12h12v34a2 2 0 0 1-2 2H2a2 2 0 0 1-2-2V2a2 2 0 0 1 2-2h22z"></path><path fill="#82C8FA" d="M26 0v10h10z"></path><rect width="19" height="13" x="29" y="33" fill="#BFE4FF" rx="1"></rect><path fill="#FFF" d="M29 36h19v2H29z"></path><rect width="21" height="3" x="6" y="30" fill="#82C8FA" rx="1.5"></rect><rect width="14" height="3" x="6" y="36" fill="#82C8FA" rx="1.5"></rect><path fill="#BFE4FF" d="M9.224 13.041c0 .422.197.743.591.966.395.222 1.004.452 1.827.691.823.24 1.501.479 2.033.718.531.24.986.598 1.363 1.076.378.479.566 1.111.566 1.897 0 1.002-.34 1.817-1.02 2.443-.68.627-1.581 1.008-2.702 1.145v.885a.986.986 0 1 1-1.972 0v-.885a8.627 8.627 0 0 1-2.333-.632 7.036 7.036 0 0 1-.908-.49 1.415 1.415 0 0 1-.524-1.825 1.043 1.043 0 0 1 1.51-.413c.435.286.81.495 1.123.626.789.33 1.51.496 2.16.496.561 0 .999-.103 1.313-.308.315-.205.472-.501.472-.888a1 1 0 0 0-.318-.76c-.211-.2-.48-.362-.806-.488a15.664 15.664 0 0 0-1.346-.427c-.824-.227-1.495-.455-2.016-.683a3.544 3.544 0 0 1-1.346-1.042c-.377-.467-.566-1.088-.566-1.863 0-.934.323-1.711.969-2.332.646-.62 1.518-1.01 2.616-1.17v-.792a.986.986 0 1 1 1.972 0v.775c.686.08 1.344.228 1.973.444.155.053.33.125.524.214.65.297.936 1.066.638 1.716-.285.61-.998.87-1.6.592a8.133 8.133 0 0 0-.891-.36c-.692-.223-1.284-.334-1.776-.334-.469 0-.84.086-1.115.256a.831.831 0 0 0-.411.752z"></path></g></svg>