<svg xmlns="http://www.w3.org/2000/svg" id="icon-approval" viewBox="0 0 48 48" width="100%" height="100%">
  <g fill="none" fill-rule="evenodd">
    <path fill="#3E9CFA" fill-rule="nonzero" d="M25.687934,32.591398 L28.0141848,33.3502487 L41.0608684,26.5435029 C43.7433629,25.2976959 45.9076705,25.4985594 47.1910169,27.3814207 C48.7787339,29.7108394 47.9014629,32.0739218 45.6732034,34.1992947 C44.754044,35.0760133 38.6846123,39.8055039 29.6008494,46.8096622 C28.1552603,47.9242206 26.2852435,48.2810323 24.5460915,47.7741205 L10.7597744,43.7558132 L4,43.7558132 L4,41.3802318 L4.26173636,27.7093626 L4.42422332,26.0378749 L10.0113225,21.3433096 C11.6589113,19.9589216 13.9140868,19.6153887 15.8822978,20.4489788 L21.9575213,23.0222342 C25.6119125,24.6547257 26.9428972,27.2870219 25.5263989,30.4821404 L15.6327673,27.451519 C15.1047019,27.2897618 14.5454902,27.5867133 14.383733,28.1147786 C14.2219758,28.642844 14.5189272,29.2020557 15.0469926,29.3638129 L25.443518,32.548481 C25.5247731,32.5733711 25.6067656,32.5874003 25.687934,32.591398 Z"></path>
    <path fill="#82C8FA" d="M30.034603,7.95246334 C30.034603,8.61728538 30.34267,9.12487837 30.9588132,9.47525755 C31.5749564,9.82563674 32.5259458,10.1894866 33.8118099,10.566818 C35.097674,10.9441494 36.1558172,11.3214752 36.9862711,11.6988066 C37.816725,12.0761381 38.5266185,12.6421267 39.1159728,13.3967896 C39.7053272,14.1514524 40,15.1486705 40,16.3884738 C40,17.9696721 39.4686961,19.2543765 38.4060723,20.2426255 C37.3434484,21.2308745 35.9370557,21.8327989 34.1868517,22.0484169 L34.1868517,23.4441554 C34.1868517,24.3034246 33.4972134,25 32.6465014,25 C31.7957894,25 31.106151,24.3034246 31.106151,23.4441554 L31.106151,22.0484169 C29.8381462,21.8867034 28.6237372,21.5542974 27.4628876,21.0511888 C27.0590336,20.8761597 26.5862824,20.6187645 26.0446341,20.2790031 C25.0800177,19.6738751 24.7261429,18.429002 25.226031,17.3991779 C25.6222421,16.5829398 26.5985367,16.2456715 27.406646,16.645868 C27.4680589,16.6762813 27.5275153,16.7105696 27.5846622,16.7485296 C28.2641998,17.1999562 28.8486844,17.5291295 29.3380967,17.7360793 C30.5703832,18.257156 31.6954974,18.5176905 32.7134731,18.5176905 C33.5885751,18.5176905 34.2716802,18.3559794 34.7628088,18.0325525 C35.2539375,17.7091256 35.4994981,17.2419603 35.4994981,16.6310428 C35.4994981,16.1459024 35.3343028,15.7461167 35.0039071,15.4316739 C34.6735115,15.117231 34.253826,14.8611885 33.7448382,14.6635387 C33.2358503,14.4658889 32.5348863,14.2412903 31.6419251,13.989736 C30.356061,13.6303727 29.3068473,13.2710149 28.4942526,12.9116516 C27.6816579,12.5522883 26.9806939,12.0042676 26.3913395,11.2675729 C25.8019852,10.5308782 25.5073124,9.55162798 25.5073124,8.32979288 C25.5073124,6.85640349 26.0118279,5.63009475 27.020874,4.65082985 C28.0299202,3.67156496 29.3916656,3.0561646 31.106151,2.80461032 L31.106151,1.55584461 C31.106151,0.69657536 31.7957894,6.72524925e-14 32.6465014,0 C33.4972134,0 34.1868517,0.69657536 34.1868517,1.55584461 L34.1868517,2.77765821 C35.2584052,2.90343535 36.2852951,3.13701797 37.2675524,3.47841307 C37.5101222,3.56272105 37.7829151,3.67497133 38.0859312,3.8151639 C39.1013893,4.28502992 39.5475275,5.49738277 39.0823874,6.52307689 C38.6376019,7.48424421 37.5242145,7.89521864 36.5849011,7.45691635 C36.0362125,7.20085283 35.5717172,7.01117519 35.191428,6.88785499 C34.110945,6.53747581 33.186744,6.36228884 32.4187974,6.36228884 C31.6865693,6.36228884 31.1061532,6.49704805 30.6775318,6.76657049 C30.2489104,7.03609294 30.034603,7.4313866 30.034603,7.95246334 Z"></path>
    <path fill="#BFE4FF" fill-rule="nonzero" d="M2,23.36 L1.5,23.36 C0.671572875,23.36 0,22.6078384 0,21.68 C0,20.7521616 0.671572875,20 1.5,20 L3.5,20 C4.32842712,20 5,20.7521616 5,21.68 L5,46.32 C5,47.2478384 4.32842712,48 3.5,48 L1.5,48 C0.671572875,48 0,47.2478384 0,46.32 C0,45.3921616 0.671572875,44.64 1.5,44.64 L2,44.64 L2,23.36 Z"></path>
  </g>
</svg>